{
  "accessors": [
    {
      "bufferView": 2,
      "componentType": 5126,
      "count": 51019,
      "max": [
        0.08252499997615814,
        0.22182799875736237,
        0.20000599324703217
      ],
      "min": [
        -0.08252499997615814,
        -0.22182799875736237,
        0.0
      ],
      "type": "VEC3"
    },
    {
      "bufferView": 2,
      "byteOffset": 612228,
      "componentType": 5126,
      "count": 51019,
      "max": [
        0.9999973773956299,
        1.0,
        0.9999644756317139
      ],
      "min": [
        -0.9999927878379822,
        -0.9999499917030334,
        -0.9999984502792358
      ],
      "type": "VEC3"
    },
    {
      "bufferView": 3,
      "componentType": 5126,
      "count": 51019,
      "max": [
        0.9999813437461853,
        0.999856173992157,
        0.9999378323554993,
        1.0
      ],
      "min": [
        -0.9999927878379822,
        -1.0,
        -0.9995726346969604,
        1.0
      ],
      "type": "VEC4"
    },
    {
      "bufferView": 1,
      "componentType": 5126,
      "count": 51019,
      "max": [
        0.9934899806976318,
        0.9942299723625183
      ],
      "min": [
        0.0019499999471008778,
        0.0019499999471008778
      ],
      "type": "VEC2"
    },
    {
      "bufferView": 0,
      "componentType": 5125,
      "count": 299976,
      "type": "SCALAR"
    }
  ],
  "asset": {
    "extras": {
      "author": "Dana Morrison (https://sketchfab.com/DanaMorrison)",
      "license": "CC-BY-4.0 (http://creativecommons.org/licenses/by/4.0/)",
      "source": "https://sketchfab.com/3d-models/ad-sneaker-c07b9a49840d4fa4b7443d4ae017d7c3",
      "title": "ad sneaker"
    },
    "generator": "Sketchfab-12.65.0",
    "version": "2.0"
  },
  "bufferViews": [
    {
      "buffer": 0,
      "byteLength": 1199904,
      "name": "floatBufferViews",
      "target": 34963
    },
    {
      "buffer": 0,
      "byteLength": 408152,
      "byteOffset": 1199904,
      "byteStride": 8,
      "name": "floatBufferViews",
      "target": 34962
    },
    {
      "buffer": 0,
      "byteLength": 1224456,
      "byteOffset": 1608056,
      "byteStride": 12,
      "name": "floatBufferViews",
      "target": 34962
    },
    {
      "buffer": 0,
      "byteLength": 816304,
      "byteOffset": 2832512,
      "byteStride": 16,
      "name": "floatBufferViews",
      "target": 34962
    }
  ],
  "buffers": [
    {
      "byteLength": 3648816,
      "uri": "scene.bin"
    }
  ],
  "images": [
    {
      "uri": "textures/main_object.001.mat_baseColor.jpeg"
    },
    {
      "uri": "textures/main_object.001.mat_metallicRoughness.png"
    },
    {
      "uri": "textures/main_object.001.mat_normal.png"
    }
  ],
  "materials": [
    {
      "doubleSided": true,
      "name": "main_object.001.mat",
      "normalTexture": {
        "index": 2
      },
      "pbrMetallicRoughness": {
        "baseColorTexture": {
          "index": 0
        },
        "metallicRoughnessTexture": {
          "index": 1
        }
      }
    }
  ],
  "meshes": [
    {
      "name": "Object_0",
      "primitives": [
        {
          "attributes": {
            "NORMAL": 1,
            "POSITION": 0,
            "TANGENT": 2,
            "TEXCOORD_0": 3
          },
          "indices": 4,
          "material": 0,
          "mode": 4
        }
      ]
    }
  ],
  "nodes": [
    {
      "children": [
        1
      ],
      "matrix": [
        1.0,
        0.0,
        0.0,
        0.0,
        0.0,
        2.220446049250313e-16,
        -1.0,
        0.0,
        0.0,
        1.0,
        2.220446049250313e-16,
        0.0,
        0.0,
        0.0,
        0.0,
        1.0
      ],
      "name": "Sketchfab_model"
    },
    {
      "children": [
        2
      ],
      "name": "adidas substance file2.obj.cleaner.materialmerger.gles"
    },
    {
      "mesh": 0,
      "name": "Object_2"
    }
  ],
  "samplers": [
    {
      "magFilter": 9729,
      "minFilter": 9987,
      "wrapS": 10497,
      "wrapT": 10497
    }
  ],
  "scene": 0,
  "scenes": [
    {
      "name": "Sketchfab_Scene",
      "nodes": [
        0
      ]
    }
  ],
  "textures": [
    {
      "sampler": 0,
      "source": 0
    },
    {
      "sampler": 0,
      "source": 1
    },
    {
      "sampler": 0,
      "source": 2
    }
  ]
}
