{
  "accessors": [
    {
      "bufferView": 2,
      "componentType": 5126,
      "count": 29115,
      "max": [
        9.419244766235352,
        9.33078384399414,
        11.282028198242188
      ],
      "min": [
        1.0492563247680664,
        0.003903627395629883,
        -11.378131866455078
      ],
      "type": "VEC3"
    },
    {
      "bufferView": 2,
      "byteOffset": 349380,
      "componentType": 5126,
      "count": 29115,
      "max": [
        0.9999771118164063,
        0.9999915361404419,
        0.9994669556617737
      ],
      "min": [
        -0.9999945759773254,
        -0.9999961853027344,
        -0.9998904466629028
      ],
      "type": "VEC3"
    },
    {
      "bufferView": 1,
      "componentType": 5126,
      "count": 29115,
      "max": [
        0.9541500210762024,
        0.9980400204658508
      ],
      "min": [
        0.0019499999471008778,
        0.0019500255584716797
      ],
      "type": "VEC2"
    },
    {
      "bufferView": 0,
      "componentType": 5125,
      "count": 167664,
      "type": "SCALAR"
    },
    {
      "bufferView": 2,
      "byteOffset": 698760,
      "componentType": 5126,
      "count": 29115,
      "max": [
        -1.0492563247680664,
        9.33078384399414,
        11.282028198242188
      ],
      "min": [
        -9.419244766235352,
        0.003903627395629883,
        -11.378131866455078
      ],
      "type": "VEC3"
    },
    {
      "bufferView": 2,
      "byteOffset": 1048140,
      "componentType": 5126,
      "count": 29115,
      "max": [
        0.9999945759773254,
        0.9999914765357971,
        0.9994670152664185
      ],
      "min": [
        -0.9999771118164063,
        -0.9999962449073792,
        -0.9998904466629028
      ],
      "type": "VEC3"
    },
    {
      "bufferView": 1,
      "byteOffset": 232920,
      "componentType": 5126,
      "count": 29115,
      "max": [
        0.9541500210762024,
        0.9980400204658508
      ],
      "min": [
        0.0019499999471008778,
        0.0019500255584716797
      ],
      "type": "VEC2"
    },
    {
      "bufferView": 0,
      "byteOffset": 670656,
      "componentType": 5125,
      "count": 167664,
      "type": "SCALAR"
    }
  ],
  "asset": {
    "extras": {
      "author": "Vincent Page (https://sketchfab.com/vincentpage)",
      "license": "CC-BY-4.0 (http://creativecommons.org/licenses/by/4.0/)",
      "source": "https://sketchfab.com/3d-models/new-balance-574-sneaker-9c823c81e63a4b9a8a4c9b93cc81d13e",
      "title": "New Balance 574 sneaker"
    },
    "generator": "Sketchfab-13.23.0",
    "version": "2.0"
  },
  "bufferViews": [
    {
      "buffer": 0,
      "byteLength": 1341312,
      "name": "floatBufferViews",
      "target": 34963
    },
    {
      "buffer": 0,
      "byteLength": 465840,
      "byteOffset": 1341312,
      "byteStride": 8,
      "name": "floatBufferViews",
      "target": 34962
    },
    {
      "buffer": 0,
      "byteLength": 1397520,
      "byteOffset": 1807152,
      "byteStride": 12,
      "name": "floatBufferViews",
      "target": 34962
    }
  ],
  "buffers": [
    {
      "byteLength": 3204672,
      "uri": "scene.bin"
    }
  ],
  "extensionsUsed": [
    "KHR_materials_unlit"
  ],
  "images": [
    {
      "uri": "textures/mat_0.002_baseColor.jpeg"
    },
    {
      "uri": "textures/lambert4_baseColor.jpeg"
    }
  ],
  "materials": [
    {
      "doubleSided": true,
      "extensions": {
        "KHR_materials_unlit": {}
      },
      "name": "mat_0.002",
      "pbrMetallicRoughness": {
        "baseColorTexture": {
          "index": 0
        },
        "metallicFactor": 0.0
      }
    },
    {
      "doubleSided": true,
      "extensions": {
        "KHR_materials_unlit": {}
      },
      "name": "lambert4",
      "pbrMetallicRoughness": {
        "baseColorTexture": {
          "index": 1
        },
        "metallicFactor": 0.0
      }
    }
  ],
  "meshes": [
    {
      "name": "New_Balance_574_mat_0.002_0",
      "primitives": [
        {
          "attributes": {
            "NORMAL": 1,
            "POSITION": 0,
            "TEXCOORD_0": 2
          },
          "indices": 3,
          "material": 0,
          "mode": 4
        }
      ]
    },
    {
      "name": "New_Balance_575_lambert4_0",
      "primitives": [
        {
          "attributes": {
            "NORMAL": 5,
            "POSITION": 4,
            "TEXCOORD_0": 6
          },
          "indices": 7,
          "material": 1,
          "mode": 4
        }
      ]
    }
  ],
  "nodes": [
    {
      "children": [
        1
      ],
      "matrix": [
        1.0,
        0.0,
        0.0,
        0.0,
        0.0,
        2.220446049250313e-16,
        -1.0,
        0.0,
        0.0,
        1.0,
        2.220446049250313e-16,
        0.0,
        0.0,
        0.0,
        0.0,
        1.0
      ],
      "name": "Sketchfab_model"
    },
    {
      "children": [
        2
      ],
      "matrix": [
        0.009999999776482582,
        0.0,
        0.0,
        0.0,
        0.0,
        0.0,
        0.009999999776482582,
        0.0,
        0.0,
        -0.009999999776482582,
        0.0,
        0.0,
        0.0,
        0.0,
        0.0,
        1.0
      ],
      "name": "e5d300c99cad4e1e92844c45279fea2f.fbx"
    },
    {
      "children": [
        3,
        5
      ],
      "name": "RootNode"
    },
    {
      "children": [
        4
      ],
      "name": "New_Balance_574"
    },
    {
      "mesh": 0,
      "name": "New_Balance_574_mat_0.002_0"
    },
    {
      "children": [
        6
      ],
      "name": "New_Balance_575"
    },
    {
      "mesh": 1,
      "name": "New_Balance_575_lambert4_0"
    }
  ],
  "samplers": [
    {
      "magFilter": 9729,
      "minFilter": 9987,
      "wrapS": 10497,
      "wrapT": 10497
    }
  ],
  "scene": 0,
  "scenes": [
    {
      "name": "Sketchfab_Scene",
      "nodes": [
        0
      ]
    }
  ],
  "textures": [
    {
      "sampler": 0,
      "source": 0
    },
    {
      "sampler": 0,
      "source": 1
    }
  ]
}
