{
  "accessors": [
    {
      "bufferView": 2,
      "componentType": 5126,
      "count": 33348,
      "max": [
        2.8304429054260254,
        12.814969062805176,
        1.0774836540222168
      ],
      "min": [
        -2.6162970066070557,
        8.352099418640137,
        -1.0195549726486206
      ],
      "type": "VEC3"
    },
    {
      "bufferView": 2,
      "byteOffset": 400176,
      "componentType": 5126,
      "count": 33348,
      "max": [
        0.9998612403869629,
        0.9999701976776123,
        0.9999388456344604
      ],
      "min": [
        -0.9997496604919434,
        -0.9999701976776123,
        -0.9999703764915466
      ],
      "type": "VEC3"
    },
    {
      "bufferView": 3,
      "componentType": 5126,
      "count": 33348,
      "max": [
        0.9999995231628418,
        0.9999969005584717,
        0.9997850656509399,
        1.0
      ],
      "min": [
        -0.999955415725708,
        -0.9999968409538269,
        -0.9998434782028198,
        -1.0
      ],
      "type": "VEC4"
    },
    {
      "bufferView": 1,
      "componentType": 5126,
      "count": 33348,
      "max": [
        0.9958900213241577,
        0.9946609735488892
      ],
      "min": [
        0.005690000019967556,
        0.0005680000176653266
      ],
      "type": "VEC2"
    },
    {
      "bufferView": 1,
      "byteOffset": 266784,
      "componentType": 5126,
      "count": 33348,
      "max": [
        0.999500036239624,
        0.9986341595649719
      ],
      "min": [
        0.0005000000237487257,
        0.0005000000237487257
      ],
      "type": "VEC2"
    },
    {
      "bufferView": 0,
      "componentType": 5125,
      "count": 181434,
      "type": "SCALAR"
    }
  ],
  "asset": {
    "extras": {
      "author": "frezer2011 (https://sketchfab.com/frezer2011)",
      "license": "CC-BY-4.0 (http://creativecommons.org/licenses/by/4.0/)",
      "source": "https://sketchfab.com/3d-models/sneakers-50725ef7d75d4898be0640700cd31c8d",
      "title": "Sneakers"
    },
    "generator": "Sketchfab-12.67.0",
    "version": "2.0"
  },
  "bufferViews": [
    {
      "buffer": 0,
      "byteLength": 725736,
      "name": "floatBufferViews",
      "target": 34963
    },
    {
      "buffer": 0,
      "byteLength": 533568,
      "byteOffset": 725736,
      "byteStride": 8,
      "name": "floatBufferViews",
      "target": 34962
    },
    {
      "buffer": 0,
      "byteLength": 800352,
      "byteOffset": 1259304,
      "byteStride": 12,
      "name": "floatBufferViews",
      "target": 34962
    },
    {
      "buffer": 0,
      "byteLength": 533568,
      "byteOffset": 2059656,
      "byteStride": 16,
      "name": "floatBufferViews",
      "target": 34962
    }
  ],
  "buffers": [
    {
      "byteLength": 2593224,
      "uri": "scene.bin"
    }
  ],
  "images": [
    {
      "uri": "textures/left_baseColor.jpeg"
    },
    {
      "uri": "textures/left_metallicRoughness.png"
    },
    {
      "uri": "textures/left_normal.png"
    }
  ],
  "materials": [
    {
      "doubleSided": true,
      "name": "left",
      "normalTexture": {
        "index": 2
      },
      "pbrMetallicRoughness": {
        "baseColorTexture": {
          "index": 0
        },
        "metallicRoughnessTexture": {
          "index": 1
        }
      }
    }
  ],
  "meshes": [
    {
      "name": "SM_Sneakers_LOD0_left_0",
      "primitives": [
        {
          "attributes": {
            "NORMAL": 1,
            "POSITION": 0,
            "TANGENT": 2,
            "TEXCOORD_0": 3,
            "TEXCOORD_1": 4
          },
          "indices": 5,
          "material": 0,
          "mode": 4
        }
      ]
    }
  ],
  "nodes": [
    {
      "children": [
        1
      ],
      "matrix": [
        1.0,
        0.0,
        0.0,
        0.0,
        0.0,
        2.220446049250313e-16,
        -1.0,
        0.0,
        0.0,
        1.0,
        2.220446049250313e-16,
        0.0,
        0.0,
        0.0,
        0.0,
        1.0
      ],
      "name": "Sketchfab_model"
    },
    {
      "children": [
        2
      ],
      "matrix": [
        1.0,
        0.0,
        0.0,
        0.0,
        0.0,
        0.0,
        1.0,
        0.0,
        0.0,
        -1.0,
        0.0,
        0.0,
        0.0,
        0.0,
        0.0,
        1.0
      ],
      "name": "SM_Sneakers.FBX"
    },
    {
      "children": [
        3
      ],
      "name": "RootNode"
    },
    {
      "children": [
        4
      ],
      "matrix": [
        5.523930072784424,
        0.0,
        0.0,
        0.0,
        0.0,
        1.2265588706449168e-15,
        -5.523930072784424,
        0.0,
        0.0,
        5.523930072784424,
        1.2265588706449168e-15,
        0.0,
        0.0,
        0.0,
        0.0,
        1.0
      ],
      "name": "SM_Sneakers_LOD0"
    },
    {
      "children": [
        5
      ],
      "matrix": [
        1.0,
        0.0,
        -0.0,
        0.0,
        0.0,
        1.0,
        0.0,
        0.0,
        0.0,
        0.0,
        1.0,
        0.0,
        0.08608376979827881,
        -10.583534240722656,
        1.0029572248458862,
        1.0
      ],
      "name": "Object_4"
    },
    {
      "mesh": 0,
      "name": "SM_Sneakers_LOD0_left_0"
    }
  ],
  "samplers": [
    {
      "magFilter": 9729,
      "minFilter": 9987,
      "wrapS": 10497,
      "wrapT": 10497
    }
  ],
  "scene": 0,
  "scenes": [
    {
      "name": "Sketchfab_Scene",
      "nodes": [
        0
      ]
    }
  ],
  "textures": [
    {
      "sampler": 0,
      "source": 0
    },
    {
      "sampler": 0,
      "source": 1
    },
    {
      "sampler": 0,
      "source": 2
    }
  ]
}
