{
  "accessors": [
    {
      "bufferView": 2,
      "componentType": 5126,
      "count": 3410,
      "max": [
        8.668182373046875,
        0.005876000039279461,
        20.041086196899414
      ],
      "min": [
        -5.808767795562744,
        -13.310555458068848,
        -20.206768035888672
      ],
      "type": "VEC3"
    },
    {
      "bufferView": 2,
      "byteOffset": 40920,
      "componentType": 5126,
      "count": 3410,
      "max": [
        0.999991774559021,
        0.9999508857727051,
        0.9999318718910217
      ],
      "min": [
        -0.9999553561210632,
        -0.9999714493751526,
        -0.9981189966201782
      ],
      "type": "VEC3"
    },
    {
      "bufferView": 3,
      "componentType": 5126,
      "count": 3410,
      "max": [
        0.9999992251396179,
        0.9999299645423889,
        0.9999998211860657,
        1.0
      ],
      "min": [
        -0.9999997615814209,
        -0.9998271465301514,
        -0.9999996423721313,
        -1.0
      ],
      "type": "VEC4"
    },
    {
      "bufferView": 1,
      "componentType": 5126,
      "count": 3410,
      "max": [
        0.966234028339386,
        0.9950000047683716
      ],
      "min": [
        0.004999999888241291,
        0.004999999888241291
      ],
      "type": "VEC2"
    },
    {
      "bufferView": 0,
      "componentType": 5125,
      "count": 14592,
      "type": "SCALAR"
    },
    {
      "bufferView": 2,
      "byteOffset": 81840,
      "componentType": 5126,
      "count": 2405,
      "max": [
        9.037215232849121,
        -7.172275066375732,
        17.53082847595215
      ],
      "min": [
        -10.68626880645752,
        -15.274005889892578,
        -8.944838523864746
      ],
      "type": "VEC3"
    },
    {
      "bufferView": 2,
      "byteOffset": 110700,
      "componentType": 5126,
      "count": 2405,
      "max": [
        0.9961538910865784,
        0.99957674741745,
        0.995545506477356
      ],
      "min": [
        -0.9961742162704468,
        -0.9995771050453186,
        -0.9938526153564453
      ],
      "type": "VEC3"
    },
    {
      "bufferView": 3,
      "byteOffset": 54560,
      "componentType": 5126,
      "count": 2405,
      "max": [
        1.0,
        0.9998279809951782,
        0.9996742606163025,
        1.0
      ],
      "min": [
        -0.9999999403953552,
        -0.9994446039199829,
        -0.9999952912330627,
        -1.0
      ],
      "type": "VEC4"
    },
    {
      "bufferView": 1,
      "byteOffset": 27280,
      "componentType": 5126,
      "count": 2405,
      "max": [
        0.9624159932136536,
        0.9950000047683716
      ],
      "min": [
        0.004999999888241291,
        0.028521999716758728
      ],
      "type": "VEC2"
    },
    {
      "bufferView": 0,
      "byteOffset": 58368,
      "componentType": 5125,
      "count": 7092,
      "type": "SCALAR"
    }
  ],
  "asset": {
    "extras": {
      "author": "Makovetkyi Volodymyr (https://sketchfab.com/pbr-scans)",
      "license": "CC-BY-4.0 (http://creativecommons.org/licenses/by/4.0/)",
      "source": "https://sketchfab.com/3d-models/pb171-sneaker-low-e3e8bc927a6549779d72863c73db402f",
      "title": "PB171 Sneaker Low"
    },
    "generator": "Sketchfab-12.67.0",
    "version": "2.0"
  },
  "bufferViews": [
    {
      "buffer": 0,
      "byteLength": 86736,
      "name": "floatBufferViews",
      "target": 34963
    },
    {
      "buffer": 0,
      "byteLength": 46520,
      "byteOffset": 86736,
      "byteStride": 8,
      "name": "floatBufferViews",
      "target": 34962
    },
    {
      "buffer": 0,
      "byteLength": 139560,
      "byteOffset": 133256,
      "byteStride": 12,
      "name": "floatBufferViews",
      "target": 34962
    },
    {
      "buffer": 0,
      "byteLength": 93040,
      "byteOffset": 272816,
      "byteStride": 16,
      "name": "floatBufferViews",
      "target": 34962
    }
  ],
  "buffers": [
    {
      "byteLength": 365856,
      "uri": "scene.bin"
    }
  ],
  "images": [
    {
      "uri": "textures/lambert2SG_baseColor.jpeg"
    },
    {
      "uri": "textures/lambert2SG_metallicRoughness.png"
    },
    {
      "uri": "textures/lambert2SG_normal.png"
    }
  ],
  "materials": [
    {
      "doubleSided": true,
      "name": "lambert2SG",
      "normalTexture": {
        "index": 2
      },
      "pbrMetallicRoughness": {
        "baseColorTexture": {
          "index": 0
        },
        "metallicRoughnessTexture": {
          "index": 1
        }
      }
    }
  ],
  "meshes": [
    {
      "name": "Object_0",
      "primitives": [
        {
          "attributes": {
            "NORMAL": 1,
            "POSITION": 0,
            "TANGENT": 2,
            "TEXCOORD_0": 3
          },
          "indices": 4,
          "material": 0,
          "mode": 4
        }
      ]
    },
    {
      "name": "Object_1",
      "primitives": [
        {
          "attributes": {
            "NORMAL": 6,
            "POSITION": 5,
            "TANGENT": 7,
            "TEXCOORD_0": 8
          },
          "indices": 9,
          "material": 0,
          "mode": 4
        }
      ]
    }
  ],
  "nodes": [
    {
      "children": [
        1
      ],
      "matrix": [
        1.0,
        0.0,
        0.0,
        0.0,
        0.0,
        -1.0,
        -4.440892098500626e-16,
        0.0,
        0.0,
        4.440892098500626e-16,
        -1.0,
        0.0,
        0.0,
        -7.715102672576906,
        7.551599025726317,
        1.0
      ],
      "name": "Sketchfab_model"
    },
    {
      "children": [
        2,
        3
      ],
      "name": "PB171_sneaker_low.obj.cleaner.materialmerger.gles"
    },
    {
      "mesh": 0,
      "name": "Object_2"
    },
    {
      "mesh": 1,
      "name": "Object_3"
    }
  ],
  "samplers": [
    {
      "magFilter": 9729,
      "minFilter": 9987,
      "wrapS": 10497,
      "wrapT": 10497
    }
  ],
  "scene": 0,
  "scenes": [
    {
      "name": "Sketchfab_Scene",
      "nodes": [
        0
      ]
    }
  ],
  "textures": [
    {
      "sampler": 0,
      "source": 0
    },
    {
      "sampler": 0,
      "source": 1
    },
    {
      "sampler": 0,
      "source": 2
    }
  ]
}
