<svg id="ロゴ_" data-name="ロゴ１" xmlns="http://www.w3.org/2000/svg" xmlns:xlink="http://www.w3.org/1999/xlink" width="145.198" height="34.13" viewBox="0 0 145.198 34.13">
  <defs>
    <linearGradient id="linear-gradient" x1="0.324" y1="1.02" x2="1.06" y2="0.967" gradientUnits="objectBoundingBox">
      <stop offset="0" stop-color="#004f9f"/>
      <stop offset="0.522" stop-color="#74eaff"/>
      <stop offset="1" stop-color="#fff"/>
    </linearGradient>
    <clipPath id="clip-path">
      <rect id="長方形_289" data-name="長方形 289" width="145.198" height="34.131" fill="none"/>
    </clipPath>
    <clipPath id="clip-path-2">
      <path id="パス_88" data-name="パス 88" d="M149.146,5.09,152.8,17.813h-8Zm-.653-2.96-7.227,20.758c-1.23,3.537-1.807,4.267-3.652,4.343v1.538h8.149V27.231c-2.307-.077-3.113-.653-3.113-2.152a6.183,6.183,0,0,1,.384-2.115l1.192-3.345h9.149l1.307,4.344a8.847,8.847,0,0,1,.423,2.076c0,.768-.73,1.191-2.153,1.191h-.769v1.538h10.61V27.231c-2.421-.077-2.652-.307-3.613-3.421L152.107.938Z" transform="translate(-137.615 -0.938)" fill="url(#linear-gradient)"/>
    </clipPath>
    <clipPath id="clip-path-3">
      <path id="パス_89" data-name="パス 89" d="M184.783,7.273c0-2.73.653-3.422,3.229-3.422,3.844,0,5.8,1.807,5.8,5.343,0,4.075-2.23,5.535-6.113,5.535h-2.921ZM176.9,2.314v1.5l.693.038c2.422.116,2.768.5,2.768,3.5v16.8c0,3-.346,3.536-2.768,3.536H176.9v1.538h11.149V27.684h-.461c-2.461,0-2.807-.538-2.807-3.536v-7.88h2.575l6.689,12.955h7.034v-1.46h-.268a3.984,3.984,0,0,1-2.652-.846,9.128,9.128,0,0,1-1.922-2.691l-4.382-8.5c3.728-.461,6.727-3.037,6.727-6.65,0-4.421-3.652-6.765-10.533-6.765Z" transform="translate(-176.902 -2.314)" fill="url(#linear-gradient)"/>
    </clipPath>
  </defs>
  <g id="グループ_222" data-name="グループ 222">
    <g id="グループ_221" data-name="グループ 221" transform="translate(0 0)" clip-path="url(#clip-path)">
      <path id="パス_86" data-name="パス 86" d="M153.752,0l7.476,24.174a8.566,8.566,0,0,0,.9,2.272,3.947,3.947,0,0,0,1.473.2l1.3.041v4.18H151.609V26.648h2.111a3.2,3.2,0,0,0,.789-.078,10.859,10.859,0,0,0-.347-1.465l-1.018-3.382h-7.2l-.878,2.464a4.841,4.841,0,0,0-.3,1.65c0,.427.084.486.116.508a3.5,3.5,0,0,0,1.7.3l1.3.043V30.87H137.043V26.7l1.287-.053c.728-.03.894-.168,1.08-.392a12.033,12.033,0,0,0,1.359-3.05l7.443-21.38Zm6.33,28.186a8.9,8.9,0,0,1-1.419-3.219L152,3.406l-1.267.418L155.1,19.039h.045l1.6,5.309a9.611,9.611,0,0,1,.477,2.452,2.359,2.359,0,0,1-.45,1.386Zm-8.3-10.953-1.98-6.9-2.355,6.9Zm-8.869,10.953a2.873,2.873,0,0,1-.722-1.334,6.058,6.058,0,0,1-.721,1.124q-.092.111-.187.21Z" transform="translate(-45.071 0)" fill="#f6f6f6"/>
      <path id="パス_87" data-name="パス 87" d="M203.19,31.5H194L187.31,18.548h-.415v6.536a11.788,11.788,0,0,0,.075,1.6,1.43,1.43,0,0,0,.12.462,3.206,3.206,0,0,0,1.269.132h1.8V31.5h-13.83V27.278h2.034a3.173,3.173,0,0,0,1.231-.126,1.439,1.439,0,0,0,.119-.465,11.883,11.883,0,0,0,.075-1.6V8.289a11.973,11.973,0,0,0-.068-1.534,1.516,1.516,0,0,0-.107-.445,3.919,3.919,0,0,0-1.314-.178h-.01l-1.96-.108V1.913h12.488c10.33,0,11.873,5.079,11.873,8.106a7.4,7.4,0,0,1-.644,3.048,7.677,7.677,0,0,1-1.739,2.433,9.356,9.356,0,0,1-3.689,2.11l3.576,6.932a8.12,8.12,0,0,0,1.611,2.3l0,0a2.706,2.706,0,0,0,1.767.513h1.611Zm-7.558-2.684h2.358a10.617,10.617,0,0,1-2.172-3.027l-.006-.011-4.662-9.04a10.582,10.582,0,0,1-1.632.237Zm-13.927,0h3.281l-.014-.018c-.64-.827-.761-1.943-.761-3.714V8.213a5.211,5.211,0,0,1,.978-3.615h-3.5l.019.023c.713.889.771,2.187.771,3.669V25.084c0,1.767-.12,2.881-.751,3.707ZM194.189,5.3a6.553,6.553,0,0,1,1.736,4.835A7.092,7.092,0,0,1,194.5,14.8a6.415,6.415,0,0,0,1.963-1.252,4.776,4.776,0,0,0,1.546-3.533,4.318,4.318,0,0,0-2.068-3.91A7.64,7.64,0,0,0,194.189,5.3Zm-7.295,9.026h1.578a5.635,5.635,0,0,0,3.648-.926,4.035,4.035,0,0,0,1.12-3.266,3.881,3.881,0,0,0-1.027-3.01,4.989,4.989,0,0,0-3.433-.99c-1.177,0-1.51.167-1.6.266s-.283.5-.283,1.812Z" transform="translate(-57.992 -0.629)" fill="#f6f6f6"/>
    </g>
  </g>
  <g id="グループ_224" data-name="グループ 224" transform="translate(92.356 0.63)">
    <g id="グループ_223" data-name="グループ 223" transform="translate(0 0)" clip-path="url(#clip-path-2)">
      <rect id="長方形_290" data-name="長方形 290" width="36.387" height="35.287" transform="matrix(0.469, -0.883, 0.883, 0.469, -11.524, 21.715)" fill="url(#linear-gradient)"/>
    </g>
  </g>
  <g id="グループ_226" data-name="グループ 226" transform="translate(118.723 1.553)">
    <g id="グループ_225" data-name="グループ 225" transform="translate(0 0)" clip-path="url(#clip-path-3)">
      <rect id="長方形_291" data-name="長方形 291" width="35.103" height="33.972" transform="matrix(0.469, -0.883, 0.883, 0.469, -11.142, 20.995)" fill="url(#linear-gradient)"/>
    </g>
  </g>
  <g id="グループ_228" data-name="グループ 228">
    <g id="グループ_227" data-name="グループ 227" transform="translate(0 0)" clip-path="url(#clip-path)">
      <path id="パス_90" data-name="パス 90" d="M5.684,11.1a4.163,4.163,0,0,0,.8.615,2.076,2.076,0,0,0,1.136.26c1.775,0,4.828-.332,7.1-.592a2.433,2.433,0,0,0,1.538-.687.942.942,0,0,1,.568-.26,2.64,2.64,0,0,1,1.4.662c.946.734,1.16,1.089,1.16,1.42s-.142.544-.544.71a2.514,2.514,0,0,0-1.184.9c-1.041,1.349-1.917,2.6-3.266,4.071a16.869,16.869,0,0,1,5.87,3.006,2.99,2.99,0,0,1,1.207,2.224A1.392,1.392,0,0,1,20.1,24.853a1.788,1.788,0,0,1-1.444-.97,17.105,17.105,0,0,0-4.876-4.97A21.475,21.475,0,0,1,2.631,25.278l-.142-.4c5.562-2.6,8.97-5.988,12.71-11.739a.643.643,0,0,0,.118-.26c0-.048-.071-.071-.142-.071-.048,0-.119.023-.166.023-1.823.213-3.574.5-4.97.734a9.241,9.241,0,0,0-1.752.5,1.8,1.8,0,0,1-.639.142c-.4,0-.876-.26-1.538-1.018a3.229,3.229,0,0,1-.758-1.3,3.741,3.741,0,0,1-.047-.687Z" transform="translate(-0.819 -3.433)" fill="#001976"/>
      <path id="パス_91" data-name="パス 91" d="M16.012,8.439a3.82,3.82,0,0,1,2.22.945,3.341,3.341,0,0,1,1.678,2.48,2.029,2.029,0,0,1-1.356,1.943,1.216,1.216,0,0,0-.636.465l-.016.022c-.236.306-.469.614-.694.912-.427.565-.863,1.142-1.35,1.744a15.618,15.618,0,0,1,4.45,2.574,4.278,4.278,0,0,1,1.685,3.251,2.877,2.877,0,0,1-.644,1.791,2.627,2.627,0,0,1-2.071.972,3.177,3.177,0,0,1-2.55-1.553l0,0A16.694,16.694,0,0,0,13.107,20a23.223,23.223,0,0,1-4.18,3.231,24.169,24.169,0,0,1-6.8,2.7l-1.178.286L0,23.519,1.1,23a25.741,25.741,0,0,0,10.724-9.158c-.874.132-1.685.266-2.38.384h0a7.843,7.843,0,0,0-1.469.417,3.171,3.171,0,0,1-1.142.24A3.611,3.611,0,0,1,4.281,13.41a4.5,4.5,0,0,1-1.063-1.92l-.005-.026a5.015,5.015,0,0,1-.068-.925V9.49l2.132-.533.537.537a2.836,2.836,0,0,0,.561.422,1.081,1.081,0,0,0,.431.06c1.858,0,5.425-.409,6.948-.583l.014,0a1.132,1.132,0,0,0,.8-.367A2.238,2.238,0,0,1,16.012,8.439Zm.8,3.247c-.067-.055-.142-.115-.227-.181a3.089,3.089,0,0,0-.447-.3,4.554,4.554,0,0,1-.473.336,1.376,1.376,0,0,1,.174.674,1.517,1.517,0,0,1-.066.44A3.745,3.745,0,0,1,16.814,11.686Zm2.472,11.159a.209.209,0,0,0,.023-.072,1.714,1.714,0,0,0-.723-1.191l-.011-.009c-.21-.179-.43-.35-.66-.516q.516.659,1.028,1.41A1.365,1.365,0,0,0,19.286,22.844Z" transform="translate(0 -2.775)" fill="#001976"/>
      <path id="パス_92" data-name="パス 92" d="M38.805,12.9a2.919,2.919,0,0,0,1.941.639c.5,0,1.089-.023,1.656-.07,1.207-.095,2.651-.213,4.615-.355,0-1.3-.023-1.989-.047-2.746a2.225,2.225,0,0,0-.118-.758.819.819,0,0,0-.592-.4,5.33,5.33,0,0,0-1.018-.071l-.047-.4a3.8,3.8,0,0,1,1.941-.71,4.379,4.379,0,0,1,1.87.521c.709.331.97.734.97,1.017a1.149,1.149,0,0,1-.354.828,1.594,1.594,0,0,0-.379.9c-.047.5-.071.995-.095,1.634,1.752-.142,2.888-.26,3.811-.379a3.638,3.638,0,0,0,1.278-.332,2.042,2.042,0,0,1,.71-.213,3.867,3.867,0,0,1,1.586.5c.663.355.9.687.9,1.136,0,.615-.379.875-1.042.875-.568,0-1.089-.095-1.656-.142a17.7,17.7,0,0,0-2.059-.095c-.663,0-2.391.023-3.6.095,0,1.7.048,3.408.095,4.994.024.591.048,1.089.1,1.8.023.45.095,1.042.095,1.444a2.72,2.72,0,0,1-.545,1.7,2.056,2.056,0,0,1-1.515.994c-.236,0-.449-.142-.568-.521a2.236,2.236,0,0,0-.781-1.349,7.761,7.761,0,0,0-1.87-.995l.048-.425c.544.07,1.4.142,2.036.166a1.222,1.222,0,0,0,.591-.071c.1-.071.213-.213.213-.663.047-2.532.07-4.521.07-6.911-1.774.189-3.242.379-4.52.615a3.762,3.762,0,0,0-1.113.331,1.693,1.693,0,0,1-.591.166,2.585,2.585,0,0,1-1.634-1.112,3.677,3.677,0,0,1-.686-1.4Zm5.018,3.787V16.9a9.923,9.923,0,0,1-.426,2.888c-.544,1.68-1.444,2.461-2.462,2.485-.947.023-1.562-.521-1.562-1.231,0-.663.379-1.018,1.018-1.278a4.888,4.888,0,0,0,2.082-1.42,5.039,5.039,0,0,0,.9-1.752Zm7.242-.355a12.973,12.973,0,0,1,3.668,1.136c1.988,1.041,2.7,1.917,2.7,2.958A1.308,1.308,0,0,1,56.106,21.9c-.615,0-.97-.426-1.4-1.089a11.391,11.391,0,0,0-3.764-4.07ZM58.189,8.5a2.154,2.154,0,1,1-2.154-2.154A2.147,2.147,0,0,1,58.189,8.5m-3.527,0a1.373,1.373,0,1,0,1.372-1.372A1.373,1.373,0,0,0,54.663,8.5" transform="translate(-12.661 -2.088)" fill="#001976"/>
      <path id="パス_93" data-name="パス 93" d="M55.289,4.348a3.5,3.5,0,0,1,1.612,6.6,2.43,2.43,0,0,1,1.127,2.029,2.139,2.139,0,0,1-.776,1.717,2.506,2.506,0,0,1-1.607.5,10.42,10.42,0,0,1-1.233-.09c-.185-.021-.359-.041-.534-.056l-.232-.02c-.227-.019-.4-.034-.564-.044a11.884,11.884,0,0,1,1.518.632l.011.006A8.529,8.529,0,0,1,57.085,17.4a3.5,3.5,0,0,1,.943,2.371,2.9,2.9,0,0,1-.67,1.931,2.589,2.589,0,0,1-2,.879,3.026,3.026,0,0,1-2.525-1.705,10.139,10.139,0,0,0-3.1-3.491q.017.635.036,1.275c.024.6.048,1.079.093,1.756v.02c.008.156.023.34.04.534.028.334.057.68.057.98a4.053,4.053,0,0,1-.79,2.477l0,0a3.356,3.356,0,0,1-2.61,1.56,1.933,1.933,0,0,1-1.848-1.461L44.7,24.5c-.145-.508-.2-.571-.3-.647a6.484,6.484,0,0,0-1.577-.827l-.929-.388.021-.186a3.306,3.306,0,0,1-1.691.511h-.091a2.66,2.66,0,0,1-2.846-2.574,2.618,2.618,0,0,1,1.855-2.521l.019-.007a3.58,3.58,0,0,0,1.529-1.017,3.76,3.76,0,0,0,.465-.764,2.9,2.9,0,0,1-1.081.256A3.756,3.756,0,0,1,37.377,14.7a5.035,5.035,0,0,1-.924-1.881l-.224-.859,1.828-1.409.819.629A1.6,1.6,0,0,0,40,11.542c.483,0,1.032-.023,1.546-.066h.006l.856-.068c.744-.059,1.559-.124,2.513-.2-.008-.518-.021-.925-.034-1.347V9.832c-.1,0-.224-.007-.389-.007H43.3L43.02,7.414l.692-.455a5.159,5.159,0,0,1,2.678-.931,5.7,5.7,0,0,1,2.43.644l.007,0a2.523,2.523,0,0,1,1.745,2.234,2.434,2.434,0,0,1-.65,1.668c-.079.1-.082.109-.09.192l0,.03c.854-.079,1.566-.157,2.213-.239l.029,0a2.291,2.291,0,0,0,.788-.181l.014-.007a3.493,3.493,0,0,1,2.416-6.02ZM47.678,9.1l-.168-.075c.017.1.029.191.037.279C47.589,9.233,47.633,9.165,47.678,9.1ZM44.894,20.152c.032-1.81.049-3.278.056-4.77l-.53.066v.8a11.238,11.238,0,0,1-.488,3.292l0,.01q-.084.261-.181.5C44.087,20.089,44.5,20.126,44.894,20.152Zm10.449-.364s0-.01,0-.015c0-.137,0-.428-.629-.929.122.185.248.378.378.581C55.2,19.6,55.284,19.71,55.343,19.788Zm-8.369,3.092a1.383,1.383,0,0,0,.3-.86,1.728,1.728,0,0,1-.456.507l-.032.023a3.363,3.363,0,0,1,.183.338Z" transform="translate(-11.915 -1.43)" fill="#001976"/>
      <path id="パス_94" data-name="パス 94" d="M76.219,11.1a4.135,4.135,0,0,0,.8.615,2.076,2.076,0,0,0,1.136.26c1.775,0,4.828-.332,7.1-.592A2.436,2.436,0,0,0,86.8,10.7a.939.939,0,0,1,.568-.26,2.641,2.641,0,0,1,1.4.662c.946.734,1.16,1.089,1.16,1.42s-.142.544-.544.71a2.517,2.517,0,0,0-1.184.9c-1.041,1.349-1.917,2.6-3.266,4.071a16.869,16.869,0,0,1,5.87,3.006A2.99,2.99,0,0,1,92,23.432a1.392,1.392,0,0,1-1.372,1.421,1.788,1.788,0,0,1-1.444-.97,17.105,17.105,0,0,0-4.876-4.97,21.472,21.472,0,0,1-11.147,6.366l-.142-.4c5.562-2.6,8.97-5.988,12.71-11.739a.643.643,0,0,0,.118-.26c0-.048-.071-.071-.142-.071-.048,0-.119.023-.166.023-1.823.213-3.574.5-4.97.734a9.227,9.227,0,0,0-1.752.5,1.8,1.8,0,0,1-.639.142c-.4,0-.876-.26-1.538-1.018a3.229,3.229,0,0,1-.758-1.3,3.74,3.74,0,0,1-.047-.687Z" transform="translate(-24.016 -3.433)" fill="#001976"/>
      <path id="パス_95" data-name="パス 95" d="M86.547,8.439a3.819,3.819,0,0,1,2.22.945,3.341,3.341,0,0,1,1.678,2.48,2.029,2.029,0,0,1-1.356,1.943,1.218,1.218,0,0,0-.636.465l-.016.021c-.236.306-.469.614-.694.912-.427.565-.863,1.142-1.351,1.744a15.618,15.618,0,0,1,4.45,2.574,4.278,4.278,0,0,1,1.685,3.251,2.877,2.877,0,0,1-.644,1.791,2.627,2.627,0,0,1-2.071.972,3.177,3.177,0,0,1-2.55-1.553l0,0A16.694,16.694,0,0,0,83.641,20a23.224,23.224,0,0,1-4.18,3.231,24.167,24.167,0,0,1-6.8,2.7l-1.178.286-.953-2.692,1.1-.516a25.741,25.741,0,0,0,10.724-9.158c-.874.132-1.685.266-2.38.384h0a7.835,7.835,0,0,0-1.469.417,3.171,3.171,0,0,1-1.142.24,3.611,3.611,0,0,1-2.549-1.477,4.5,4.5,0,0,1-1.063-1.92l-.005-.026a5.016,5.016,0,0,1-.068-.925V9.49l2.135-.533.537.539a2.808,2.808,0,0,0,.558.421,1.081,1.081,0,0,0,.431.06c1.857,0,5.425-.409,6.948-.583l.014,0a1.134,1.134,0,0,0,.8-.367A2.234,2.234,0,0,1,86.547,8.439Zm.8,3.247c-.067-.055-.142-.115-.227-.181a3.091,3.091,0,0,0-.447-.3,4.566,4.566,0,0,1-.474.336,1.377,1.377,0,0,1,.174.674,1.517,1.517,0,0,1-.066.44A3.752,3.752,0,0,1,87.348,11.686ZM89.82,22.844a.209.209,0,0,0,.023-.072,1.714,1.714,0,0,0-.723-1.191l-.011-.009c-.21-.179-.43-.35-.66-.516q.516.659,1.028,1.41A1.365,1.365,0,0,0,89.82,22.844Z" transform="translate(-23.197 -2.775)" fill="#001976"/>
      <path id="パス_96" data-name="パス 96" d="M116.931,6.925a7.14,7.14,0,0,1,1.633-.26,4.207,4.207,0,0,1,1.893.687c.687.425,1.018.8,1.018,1.183a1.205,1.205,0,0,1-.26.734,2.257,2.257,0,0,0-.332,1.4c-.023.876-.023,1.87-.023,3.527a17.242,17.242,0,0,1,4.473.875c1.634.568,2.225,1.444,2.225,2.414a1.3,1.3,0,0,1-1.35,1.444,2,2,0,0,1-1.42-.829,9.067,9.067,0,0,0-3.929-2.935c0,2.935.095,6.817.095,9.491,0,.734-.332,1.4-1.112,1.4a1.252,1.252,0,0,1-1.136-.71,2.428,2.428,0,0,1-.332-1.515c0-.474.166-1.964.189-6.367.024-1.538.024-2.911.024-4.26,0-1.325,0-2.627-.048-3.976-.023-.639-.095-.9-.26-1.089a2.141,2.141,0,0,0-1.349-.758Z" transform="translate(-38.456 -2.192)" fill="#001976"/>
      <path id="パス_97" data-name="パス 97" d="M117.906,4.665a5.444,5.444,0,0,1,2.61.894,4.587,4.587,0,0,1,1.066.867,2.2,2.2,0,0,1,.578,1.451,2.551,2.551,0,0,1-.523,1.532,2.123,2.123,0,0,0-.069.64c-.017.62-.021,1.311-.022,2.267a17.945,17.945,0,0,1,3.575.827,5.224,5.224,0,0,1,2.3,1.45,3.385,3.385,0,0,1,.823,2.231,2.757,2.757,0,0,1-.811,2.062,2.685,2.685,0,0,1-1.881.725,3.3,3.3,0,0,1-2.462-1.325,9.361,9.361,0,0,0-1.531-1.512c.009.876.022,1.781.035,2.671.024,1.664.046,3.235.046,4.55a3.015,3.015,0,0,1-.506,1.744,2.311,2.311,0,0,1-1.948,1,2.577,2.577,0,0,1-2.257-1.314,3.72,3.72,0,0,1-.553-2.253c0-.16.011-.353.03-.674.046-.8.142-2.461.16-5.7v-.014c.024-1.528.024-2.906.024-4.239s0-2.6-.047-3.928c-.007-.182-.017-.295-.025-.36a1.009,1.009,0,0,0-.521-.22L114.931,7.8V5.261l.966-.282A8.383,8.383,0,0,1,117.906,4.665Zm1.441,3.341c-.047-.034-.1-.074-.171-.117.016.121.027.243.035.365A2.716,2.716,0,0,1,119.347,8.006Zm6.206,8.914a.822.822,0,0,0,.005-.1c0-.178,0-.636-1.133-1.076q.385.4.748.846A1.171,1.171,0,0,0,125.553,16.919Z" transform="translate(-37.798 -1.534)" fill="#001976"/>
      <path id="パス_98" data-name="パス 98" d="M4.351,9.6a4.163,4.163,0,0,0,.8.615,2.076,2.076,0,0,0,1.136.26c1.775,0,4.828-.332,7.1-.592A2.433,2.433,0,0,0,14.931,9.2a.942.942,0,0,1,.568-.26,2.64,2.64,0,0,1,1.4.662c.946.734,1.16,1.089,1.16,1.42s-.142.544-.544.71a2.514,2.514,0,0,0-1.184.9c-1.041,1.349-1.917,2.6-3.266,4.071a16.869,16.869,0,0,1,5.87,3.006,2.99,2.99,0,0,1,1.207,2.224,1.392,1.392,0,0,1-1.372,1.421,1.788,1.788,0,0,1-1.444-.97,17.105,17.105,0,0,0-4.876-4.97A21.475,21.475,0,0,1,1.3,23.778l-.142-.4c5.562-2.6,8.97-5.988,12.71-11.739a.643.643,0,0,0,.118-.26c0-.048-.071-.071-.142-.071-.048,0-.119.023-.166.023-1.823.213-3.574.5-4.97.734a9.241,9.241,0,0,0-1.752.5,1.8,1.8,0,0,1-.639.142c-.4,0-.876-.26-1.538-1.018a3.229,3.229,0,0,1-.758-1.3A3.741,3.741,0,0,1,3.973,9.7Z" transform="translate(-0.38 -2.94)" fill="#fff"/>
      <path id="パス_99" data-name="パス 99" d="M37.471,11.4a2.92,2.92,0,0,0,1.941.639c.5,0,1.089-.023,1.656-.07,1.207-.095,2.651-.213,4.615-.355,0-1.3-.023-1.989-.047-2.746a2.225,2.225,0,0,0-.118-.758.817.817,0,0,0-.592-.4,5.33,5.33,0,0,0-1.018-.071l-.047-.4a3.8,3.8,0,0,1,1.941-.71,4.379,4.379,0,0,1,1.87.521c.709.331.97.734.97,1.017a1.149,1.149,0,0,1-.354.828,1.594,1.594,0,0,0-.379.9c-.047.5-.071.995-.095,1.634,1.752-.142,2.888-.26,3.811-.379a3.638,3.638,0,0,0,1.278-.332,2.042,2.042,0,0,1,.71-.213A3.867,3.867,0,0,1,55.2,11c.663.355.9.687.9,1.136,0,.615-.379.875-1.042.875-.568,0-1.089-.095-1.656-.142a17.7,17.7,0,0,0-2.059-.095c-.663,0-2.391.023-3.6.095,0,1.7.048,3.408.095,4.994.024.591.048,1.089.1,1.8.023.45.094,1.042.094,1.444a2.719,2.719,0,0,1-.544,1.7,2.056,2.056,0,0,1-1.515.994c-.236,0-.449-.142-.568-.521a2.236,2.236,0,0,0-.781-1.349,7.761,7.761,0,0,0-1.87-.995l.048-.425c.544.07,1.4.142,2.036.166a1.222,1.222,0,0,0,.591-.071c.1-.071.213-.213.213-.663.047-2.532.07-4.521.07-6.911-1.774.189-3.242.379-4.519.615a3.761,3.761,0,0,0-1.113.331,1.689,1.689,0,0,1-.591.166,2.586,2.586,0,0,1-1.633-1.112,3.678,3.678,0,0,1-.687-1.4Zm5.018,3.787V15.4a9.945,9.945,0,0,1-.425,2.888c-.545,1.68-1.444,2.461-2.462,2.485-.947.023-1.562-.521-1.562-1.231,0-.663.38-1.018,1.019-1.278a4.885,4.885,0,0,0,2.082-1.42,5.028,5.028,0,0,0,.9-1.752Zm7.242-.355A12.973,12.973,0,0,1,53.4,15.972c1.988,1.041,2.7,1.917,2.7,2.958A1.308,1.308,0,0,1,54.772,20.4c-.615,0-.97-.426-1.4-1.089a11.391,11.391,0,0,0-3.764-4.07ZM56.855,7A2.154,2.154,0,1,1,54.7,4.848,2.147,2.147,0,0,1,56.855,7M53.329,7A1.373,1.373,0,1,0,54.7,5.629,1.374,1.374,0,0,0,53.329,7" transform="translate(-12.222 -1.594)" fill="#fff"/>
      <path id="パス_100" data-name="パス 100" d="M74.885,9.6a4.164,4.164,0,0,0,.8.615,2.076,2.076,0,0,0,1.136.26c1.775,0,4.828-.332,7.1-.592A2.433,2.433,0,0,0,85.465,9.2a.942.942,0,0,1,.568-.26,2.64,2.64,0,0,1,1.4.662c.946.734,1.16,1.089,1.16,1.42s-.142.544-.544.71a2.514,2.514,0,0,0-1.184.9c-1.041,1.349-1.917,2.6-3.266,4.071a16.869,16.869,0,0,1,5.87,3.006,2.99,2.99,0,0,1,1.207,2.224A1.392,1.392,0,0,1,89.3,23.353a1.788,1.788,0,0,1-1.444-.97,17.105,17.105,0,0,0-4.876-4.97,21.475,21.475,0,0,1-11.147,6.366l-.142-.4c5.562-2.6,8.97-5.988,12.71-11.739a.643.643,0,0,0,.118-.26c0-.048-.071-.071-.142-.071-.048,0-.119.023-.166.023-1.823.213-3.574.5-4.97.734a9.241,9.241,0,0,0-1.752.5,1.8,1.8,0,0,1-.639.142c-.4,0-.876-.26-1.538-1.018a3.229,3.229,0,0,1-.758-1.3,3.74,3.74,0,0,1-.047-.687Z" transform="translate(-23.577 -2.94)" fill="#fff"/>
      <path id="パス_101" data-name="パス 101" d="M115.6,5.426a7.135,7.135,0,0,1,1.633-.26,4.207,4.207,0,0,1,1.893.687c.687.425,1.018.8,1.018,1.183a1.205,1.205,0,0,1-.26.734,2.253,2.253,0,0,0-.332,1.4c-.023.876-.023,1.87-.023,3.527a17.242,17.242,0,0,1,4.473.875c1.633.568,2.225,1.444,2.225,2.414a1.294,1.294,0,0,1-1.349,1.444,2,2,0,0,1-1.42-.829,9.07,9.07,0,0,0-3.929-2.935c0,2.935.095,6.817.095,9.491,0,.734-.332,1.4-1.113,1.4a1.253,1.253,0,0,1-1.136-.71,2.432,2.432,0,0,1-.331-1.515c0-.474.166-1.964.189-6.367.023-1.538.023-2.911.023-4.26,0-1.325,0-2.627-.047-3.976-.023-.639-.095-.9-.26-1.089a2.143,2.143,0,0,0-1.349-.758Z" transform="translate(-38.018 -1.699)" fill="#fff"/>
      <path id="パス_102" data-name="パス 102" d="M1.442,39.512c-.008.113-.016.217-.024.314s-.012.193-.012.289a3.131,3.131,0,0,0,.145.991,2.224,2.224,0,0,0,.4.742,1.753,1.753,0,0,0,.616.472,1.85,1.85,0,0,0,.779.163,1.958,1.958,0,0,0,.64-.1,1.63,1.63,0,0,0,.538-.3A1.479,1.479,0,0,0,4.9,41.6a1.418,1.418,0,0,0,.139-.64,1.519,1.519,0,0,0-.2-.785,2.577,2.577,0,0,0-.5-.609,7.481,7.481,0,0,0-.658-.525,6.263,6.263,0,0,1-.658-.538,2.646,2.646,0,0,1-.5-.64,1.7,1.7,0,0,1-.2-.84,1.814,1.814,0,0,1,.284-.991,2.828,2.828,0,0,1,.719-.766,3.515,3.515,0,0,1,.966-.5,3.127,3.127,0,0,1,1.015-.182,4.175,4.175,0,0,1,1.2.176,6.627,6.627,0,0,1,1.129.453,7.3,7.3,0,0,0-.381,1.142q-.139.573-.248,1.165l-.217-.06a9.843,9.843,0,0,0-.115-1.038,2.454,2.454,0,0,0-.248-.767,1.141,1.141,0,0,0-.477-.471,1.715,1.715,0,0,0-.8-.163,1.272,1.272,0,0,0-.507.1,1.521,1.521,0,0,0-.429.271,1.31,1.31,0,0,0-.3.405,1.119,1.119,0,0,0-.115.5,1.451,1.451,0,0,0,.2.772,2.836,2.836,0,0,0,.5.6,6.175,6.175,0,0,0,.658.525,5.13,5.13,0,0,1,.658.543,2.781,2.781,0,0,1,.5.665,1.812,1.812,0,0,1,.2.875,2.174,2.174,0,0,1-.29,1.13,2.781,2.781,0,0,1-.749.827,3.285,3.285,0,0,1-1.039.507,4.083,4.083,0,0,1-1.148.169,3.027,3.027,0,0,1-.713-.085,6.712,6.712,0,0,1-.689-.2c-.225-.081-.451-.159-.676-.236a5.8,5.8,0,0,0-.689-.187q.205-.69.356-1.384t.308-1.395Z" transform="translate(-0.172 -11.374)" fill="#fff"/>
      <path id="パス_103" data-name="パス 103" d="M15.186,39.733h1.365l-.507,1.244.024.025.411-.507a3.323,3.323,0,0,1,.441-.453,2.13,2.13,0,0,1,.525-.326,1.612,1.612,0,0,1,.652-.128,1.287,1.287,0,0,1,.942.332,1.253,1.253,0,0,1,.338.937,2.8,2.8,0,0,1-.308,1.226,4.815,4.815,0,0,1-.8,1.165,4.485,4.485,0,0,1-1.1.876,2.454,2.454,0,0,1-1.214.344,1.874,1.874,0,0,1-.471-.06,1.238,1.238,0,0,1-.435-.217q-.121.362-.266.755t-.284.779q-.139.386-.254.755a6.69,6.69,0,0,0-.175.67H12.71Zm.278,3.3a1.062,1.062,0,0,0,.066.338,1.419,1.419,0,0,0,.187.362,1.142,1.142,0,0,0,.29.284.634.634,0,0,0,.362.115.591.591,0,0,0,.429-.206,2.444,2.444,0,0,0,.374-.519,5.19,5.19,0,0,0,.32-.7q.145-.387.248-.755c.068-.246.121-.471.157-.676a2.922,2.922,0,0,0,.054-.454.576.576,0,0,0-.175-.434.609.609,0,0,0-.441-.169.77.77,0,0,0-.441.156,2.147,2.147,0,0,0-.429.411,4.421,4.421,0,0,0-.387.568,6.691,6.691,0,0,0-.32.629,4.524,4.524,0,0,0-.217.591,1.763,1.763,0,0,0-.079.46" transform="translate(-4.18 -13.019)" fill="#fff"/>
      <path id="パス_104" data-name="パス 104" d="M26.516,43.357a2.947,2.947,0,0,1,.338-1.336,4.777,4.777,0,0,1,.876-1.213,4.61,4.61,0,0,1,1.208-.882,2.943,2.943,0,0,1,1.335-.338,1.617,1.617,0,0,1,1.033.3,1.19,1.19,0,0,1,.381.991,2.388,2.388,0,0,1-.175.888,3.825,3.825,0,0,1-.465.84,4.78,4.78,0,0,1-.664.737,5.8,5.8,0,0,1-.773.592,3.906,3.906,0,0,1-.791.393,2.2,2.2,0,0,1-.731.139,2.237,2.237,0,0,1-1.136-.254.912.912,0,0,1-.435-.858m3.672-2.525a1.685,1.685,0,0,0-.024-.278,1.138,1.138,0,0,0-.085-.278.6.6,0,0,0-.163-.217.4.4,0,0,0-.26-.085.593.593,0,0,0-.393.181,2.175,2.175,0,0,0-.381.477,5.283,5.283,0,0,0-.338.658q-.157.362-.278.73a6.138,6.138,0,0,0-.187.7,2.908,2.908,0,0,0-.066.55,1.5,1.5,0,0,0,.024.254,1.076,1.076,0,0,0,.079.266.592.592,0,0,0,.151.205.371.371,0,0,0,.254.085.649.649,0,0,0,.441-.193,2.246,2.246,0,0,0,.393-.489,4.952,4.952,0,0,0,.338-.67c.1-.25.193-.493.266-.731a6.543,6.543,0,0,0,.169-.67,2.788,2.788,0,0,0,.06-.5" transform="translate(-8.721 -13.02)" fill="#fff"/>
      <path id="パス_105" data-name="パス 105" d="M39.659,39.733h1.5l-.761,1.8.024.024c.1-.153.219-.342.368-.568a5.512,5.512,0,0,1,.5-.647,3.851,3.851,0,0,1,.586-.532,1.042,1.042,0,0,1,.61-.223.73.73,0,0,1,.556.23.809.809,0,0,1,.217.579,1.177,1.177,0,0,1-.054.338,1.114,1.114,0,0,1-.157.326.9.9,0,0,1-.254.242.6.6,0,0,1-.332.1.544.544,0,0,1-.483-.193.9.9,0,0,1-.133-.519.2.2,0,0,0-.115-.048.927.927,0,0,0-.139-.012.632.632,0,0,0-.441.205,2.446,2.446,0,0,0-.381.483,5.39,5.39,0,0,0-.3.556c-.085.185-.156.33-.211.435-.032.072-.083.189-.151.35s-.139.34-.211.538-.144.4-.211.6-.127.378-.175.532H38.125Z" transform="translate(-12.539 -13.019)" fill="#fff"/>
      <path id="パス_106" data-name="パス 106" d="M52.727,36.888l-.713,1.957h1.619l-.157.507H51.87l-.713,2.078c-.065.185-.137.381-.217.586a1.484,1.484,0,0,0-.121.525.283.283,0,0,0,.145.241.634.634,0,0,0,.362.1,1,1,0,0,0,.459-.1,1.778,1.778,0,0,0,.356-.229c.1-.085.185-.162.254-.23s.115-.1.139-.1c.04,0,.06.028.06.085a.7.7,0,0,1-.157.266A2.728,2.728,0,0,1,52,43a2.968,2.968,0,0,1-.658.405,1.927,1.927,0,0,1-.815.175,1.973,1.973,0,0,1-.441-.049,1.2,1.2,0,0,1-.374-.15.764.764,0,0,1-.26-.272.792.792,0,0,1-.1-.4,1.57,1.57,0,0,1,.1-.471c.064-.193.141-.411.23-.652l1.486-4.374Z" transform="translate(-16.233 -12.132)" fill="#fff"/>
      <path id="パス_107" data-name="パス 107" d="M59.03,41.8a.8.8,0,0,1,.326.054,1.054,1.054,0,0,1,.266.187c.226-.185.461-.393.707-.621s.485-.459.719-.689.451-.456.652-.677a7.251,7.251,0,0,0,.5-.6l.079-.115q.054-.079.109-.163a1.741,1.741,0,0,1,.1-.145c.032-.04.056-.06.072-.06a.1.1,0,0,1,.091.054.262.262,0,0,1,.03.127.756.756,0,0,1-.091.338,2.291,2.291,0,0,0-.163.52,3.727,3.727,0,0,0-.048.586q-.012.417-.048.864a2.3,2.3,0,0,1-.32.966,4.188,4.188,0,0,1-.7.907,3.8,3.8,0,0,1-.918.67,2.109,2.109,0,0,1-.972.26,1.965,1.965,0,0,1-.538-.073,1.33,1.33,0,0,1-.459-.223,1.1,1.1,0,0,1-.441-.911,1.624,1.624,0,0,1,.066-.465,1.31,1.31,0,0,1,.193-.4.945.945,0,0,1,.791-.393m.713,2.15a.9.9,0,0,0,.538-.152,1.108,1.108,0,0,0,.338-.387,1.943,1.943,0,0,0,.187-.525,3.508,3.508,0,0,0,.072-.556q.024-.278.036-.544c.008-.177.019-.358.036-.543q-.314.254-.6.519a4.644,4.644,0,0,1-.628.483.783.783,0,0,1-.079.507.558.558,0,0,1-.381.314q-.012.047-.018.085a.52.52,0,0,0-.006.085,1.02,1.02,0,0,0,.115.513.417.417,0,0,0,.393.2" transform="translate(-19.068 -12.818)" fill="#fff"/>
      <path id="パス_108" data-name="パス 108" d="M77.8,39.512c-.008.113-.016.217-.024.314s-.012.193-.012.289a3.131,3.131,0,0,0,.145.991,2.224,2.224,0,0,0,.4.742,1.753,1.753,0,0,0,.616.472,1.85,1.85,0,0,0,.779.163,1.958,1.958,0,0,0,.64-.1,1.63,1.63,0,0,0,.538-.3,1.479,1.479,0,0,0,.374-.477,1.418,1.418,0,0,0,.139-.64,1.519,1.519,0,0,0-.2-.785,2.577,2.577,0,0,0-.5-.609,7.481,7.481,0,0,0-.658-.525,6.261,6.261,0,0,1-.658-.538,2.646,2.646,0,0,1-.5-.64,1.7,1.7,0,0,1-.2-.84,1.814,1.814,0,0,1,.284-.991,2.827,2.827,0,0,1,.719-.766,3.515,3.515,0,0,1,.966-.5,3.127,3.127,0,0,1,1.015-.182,4.174,4.174,0,0,1,1.2.176,6.628,6.628,0,0,1,1.13.453,7.3,7.3,0,0,0-.381,1.142q-.139.573-.248,1.165l-.217-.06a9.844,9.844,0,0,0-.115-1.038,2.454,2.454,0,0,0-.248-.767,1.141,1.141,0,0,0-.477-.471,1.715,1.715,0,0,0-.8-.163,1.272,1.272,0,0,0-.507.1,1.521,1.521,0,0,0-.429.271,1.31,1.31,0,0,0-.3.405,1.119,1.119,0,0,0-.115.5,1.451,1.451,0,0,0,.2.772,2.836,2.836,0,0,0,.5.6,6.174,6.174,0,0,0,.658.525,5.131,5.131,0,0,1,.658.543,2.781,2.781,0,0,1,.5.665,1.812,1.812,0,0,1,.2.875,2.174,2.174,0,0,1-.29,1.13,2.781,2.781,0,0,1-.749.827,3.285,3.285,0,0,1-1.039.507,4.083,4.083,0,0,1-1.148.169,3.027,3.027,0,0,1-.713-.085,6.71,6.71,0,0,1-.689-.2c-.226-.081-.451-.159-.676-.236a5.8,5.8,0,0,0-.689-.187q.205-.69.356-1.384t.308-1.395Z" transform="translate(-25.284 -11.374)" fill="#fff"/>
      <path id="パス_109" data-name="パス 109" d="M94.307,36.888l-.713,1.957h1.619l-.157.507H93.45l-.713,2.078c-.065.185-.137.381-.217.586a1.484,1.484,0,0,0-.121.525.283.283,0,0,0,.145.241.634.634,0,0,0,.362.1,1,1,0,0,0,.459-.1,1.778,1.778,0,0,0,.356-.229c.1-.085.185-.162.254-.23s.115-.1.139-.1c.04,0,.06.028.06.085a.7.7,0,0,1-.157.266,2.727,2.727,0,0,1-.435.434,2.968,2.968,0,0,1-.658.405,1.927,1.927,0,0,1-.815.175,1.973,1.973,0,0,1-.441-.049,1.2,1.2,0,0,1-.374-.15.764.764,0,0,1-.26-.272.792.792,0,0,1-.1-.4,1.57,1.57,0,0,1,.1-.471c.064-.193.141-.411.23-.652l1.486-4.374Z" transform="translate(-29.907 -12.132)" fill="#fff"/>
      <path id="パス_110" data-name="パス 110" d="M99.883,43.357a2.948,2.948,0,0,1,.338-1.336,4.777,4.777,0,0,1,.876-1.213,4.61,4.61,0,0,1,1.208-.882,2.943,2.943,0,0,1,1.335-.338,1.617,1.617,0,0,1,1.033.3,1.19,1.19,0,0,1,.381.991,2.388,2.388,0,0,1-.175.888,3.824,3.824,0,0,1-.465.84,4.781,4.781,0,0,1-.664.737,5.8,5.8,0,0,1-.773.592,3.905,3.905,0,0,1-.791.393,2.2,2.2,0,0,1-.731.139,2.237,2.237,0,0,1-1.136-.254.912.912,0,0,1-.435-.858m3.672-2.525a1.686,1.686,0,0,0-.024-.278,1.138,1.138,0,0,0-.085-.278.6.6,0,0,0-.163-.217.4.4,0,0,0-.26-.085.593.593,0,0,0-.393.181,2.175,2.175,0,0,0-.381.477,5.285,5.285,0,0,0-.338.658q-.157.362-.278.73a6.138,6.138,0,0,0-.187.7,2.908,2.908,0,0,0-.066.55,1.494,1.494,0,0,0,.024.254,1.076,1.076,0,0,0,.079.266.592.592,0,0,0,.151.205.371.371,0,0,0,.254.085.65.65,0,0,0,.441-.193,2.246,2.246,0,0,0,.393-.489,4.951,4.951,0,0,0,.338-.67c.1-.25.193-.493.266-.731a6.539,6.539,0,0,0,.169-.67,2.788,2.788,0,0,0,.06-.5" transform="translate(-32.849 -13.02)" fill="#fff"/>
      <path id="パス_111" data-name="パス 111" d="M113.027,39.733h1.5l-.761,1.8.024.024c.1-.153.219-.342.368-.568a5.512,5.512,0,0,1,.5-.647,3.852,3.852,0,0,1,.586-.532,1.042,1.042,0,0,1,.61-.223.73.73,0,0,1,.556.23.809.809,0,0,1,.217.579,1.178,1.178,0,0,1-.054.338,1.113,1.113,0,0,1-.157.326.9.9,0,0,1-.254.242.6.6,0,0,1-.332.1.544.544,0,0,1-.483-.193.9.9,0,0,1-.133-.519.2.2,0,0,0-.115-.048.927.927,0,0,0-.139-.012.632.632,0,0,0-.441.205,2.446,2.446,0,0,0-.381.483,5.4,5.4,0,0,0-.3.556c-.085.185-.156.33-.211.435-.032.072-.083.189-.151.35s-.139.34-.211.538-.144.4-.211.6-.127.378-.175.532h-1.389Z" transform="translate(-36.668 -13.019)" fill="#fff"/>
      <path id="パス_112" data-name="パス 112" d="M122.473,43.2a2.286,2.286,0,0,1,.175-.858,3.9,3.9,0,0,1,.471-.84,5.009,5.009,0,0,1,.683-.755,5.352,5.352,0,0,1,.8-.6,4.6,4.6,0,0,1,.84-.4,2.346,2.346,0,0,1,.785-.151.921.921,0,0,1,.61.187.708.708,0,0,1,.223.574.91.91,0,0,1-.163.519,1.9,1.9,0,0,1-.423.441,3.335,3.335,0,0,1-.586.356,6,6,0,0,1-.658.272,6.583,6.583,0,0,1-.64.187q-.308.072-.538.109-.024.157-.054.32a1.755,1.755,0,0,0-.03.32.806.806,0,0,0,.272.695,1.205,1.205,0,0,0,.731.2,1.731,1.731,0,0,0,.676-.127,2.794,2.794,0,0,0,.525-.284,4.335,4.335,0,0,0,.368-.284c.1-.085.161-.126.193-.126s.048.028.048.085q0,.059-.217.3a3.3,3.3,0,0,1-.6.489,4.575,4.575,0,0,1-.9.453,3.061,3.061,0,0,1-1.111.2,2.5,2.5,0,0,1-.586-.066,1.27,1.27,0,0,1-.471-.218,1.041,1.041,0,0,1-.314-.393,1.373,1.373,0,0,1-.115-.592m3.262-2.754a.184.184,0,0,0-.1-.181.462.462,0,0,0-.205-.048.569.569,0,0,0-.4.211,2.88,2.88,0,0,0-.368.5,5.057,5.057,0,0,0-.3.574q-.127.29-.2.447a2.626,2.626,0,0,0,1.238-.695,1.271,1.271,0,0,0,.332-.8" transform="translate(-40.279 -13.02)" fill="#fff"/>
    </g>
  </g>
</svg>
