{
  "accessors": [
    {
      "bufferView": 2,
      "componentType": 5126,
      "count": 40666,
      "max": [
        4.710433006286621,
        5.304299831390381,
        0.6677849888801575
      ],
      "min": [
        -1.2353899478912354,
        2.5218520164489746,
        -2.49249005317688
      ],
      "type": "VEC3"
    },
    {
      "bufferView": 2,
      "byteOffset": 487992,
      "componentType": 5126,
      "count": 40666,
      "max": [
        0.999837338924408,
        0.9999070167541504,
        0.999666154384613
      ],
      "min": [
        -0.9998804330825806,
        -0.999971866607666,
        -0.9999951124191284
      ],
      "type": "VEC3"
    },
    {
      "bufferView": 3,
      "componentType": 5126,
      "count": 40666,
      "max": [
        0.9999955296516418,
        0.9998681545257568,
        0.9999908804893494,
        1.0
      ],
      "min": [
        -0.9999544024467468,
        -0.9998441338539124,
        -0.9998432397842407,
        1.0
      ],
      "type": "VEC4"
    },
    {
      "bufferView": 1,
      "componentType": 5126,
      "count": 40666,
      "max": [
        0.9983969926834106,
        0.9999679923057556
      ],
      "min": [
        5.500000042957254e-05,
        1.5999999959603883e-05
      ],
      "type": "VEC2"
    },
    {
      "bufferView": 0,
      "componentType": 5125,
      "count": 178704,
      "type": "SCALAR"
    }
  ],
  "asset": {
    "extras": {
      "author": "Przemek Gesicki - DigitWorlds (https://sketchfab.com/DigitWorlds)",
      "license": "CC-BY-NC-4.0 (http://creativecommons.org/licenses/by-nc/4.0/)",
      "source": "https://sketchfab.com/3d-models/4f-running-shoe-by-digitworlds-8k-textures-8833668de7ae455db5eade615137410e",
      "title": "4F Running shoe by DigitWorlds 8k textures"
    },
    "generator": "Sketchfab-12.66.0",
    "version": "2.0"
  },
  "bufferViews": [
    {
      "buffer": 0,
      "byteLength": 714816,
      "name": "floatBufferViews",
      "target": 34963
    },
    {
      "buffer": 0,
      "byteLength": 325328,
      "byteOffset": 714816,
      "byteStride": 8,
      "name": "floatBufferViews",
      "target": 34962
    },
    {
      "buffer": 0,
      "byteLength": 975984,
      "byteOffset": 1040144,
      "byteStride": 12,
      "name": "floatBufferViews",
      "target": 34962
    },
    {
      "buffer": 0,
      "byteLength": 650656,
      "byteOffset": 2016128,
      "byteStride": 16,
      "name": "floatBufferViews",
      "target": 34962
    }
  ],
  "buffers": [
    {
      "byteLength": 2666784,
      "uri": "scene.bin"
    }
  ],
  "extensionsRequired": [
    "KHR_materials_pbrSpecularGlossiness"
  ],
  "extensionsUsed": [
    "KHR_materials_pbrSpecularGlossiness"
  ],
  "images": [
    {
      "uri": "textures/material_diffuse.jpeg"
    },
    {
      "uri": "textures/material_specularGlossiness.png"
    },
    {
      "uri": "textures/material_normal.jpeg"
    }
  ],
  "materials": [
    {
      "doubleSided": true,
      "extensions": {
        "KHR_materials_pbrSpecularGlossiness": {
          "diffuseFactor": [
            0.830836785356473,
            0.830836785356473,
            0.830836785356473,
            1.0
          ],
          "diffuseTexture": {
            "index": 0
          },
          "glossinessFactor": 1.0,
          "specularFactor": [
            0.026902532104621756,
            0.026902532104621756,
            0.026902532104621756
          ],
          "specularGlossinessTexture": {
            "index": 1
          }
        }
      },
      "name": "material",
      "normalTexture": {
        "index": 2,
        "scale": 0.4602733404981978
      }
    }
  ],
  "meshes": [
    {
      "name": "Object_0",
      "primitives": [
        {
          "attributes": {
            "NORMAL": 1,
            "POSITION": 0,
            "TANGENT": 2,
            "TEXCOORD_0": 3
          },
          "indices": 4,
          "material": 0,
          "mode": 4
        }
      ]
    }
  ],
  "nodes": [
    {
      "children": [
        1
      ],
      "matrix": [
        0.9577822685241699,
        -0.0361246764659881,
        -0.2852160334587097,
        0.0,
        -0.2407686561346054,
        -0.6429377794265746,
        -0.7270910739898683,
        0.0,
        -0.15711022913455963,
        0.7650660276412965,
        -0.6244921088218687,
        0.0,
        0.9210705757141113,
        2.93843936920166,
        -0.8318491578102105,
        1.0
      ],
      "name": "Sketchfab_model"
    },
    {
      "children": [
        2
      ],
      "name": "4f.obj.cleaner.materialmerger.gles"
    },
    {
      "mesh": 0,
      "name": "Object_2"
    }
  ],
  "samplers": [
    {
      "magFilter": 9729,
      "minFilter": 9987,
      "wrapS": 10497,
      "wrapT": 10497
    }
  ],
  "scene": 0,
  "scenes": [
    {
      "name": "Sketchfab_Scene",
      "nodes": [
        0
      ]
    }
  ],
  "textures": [
    {
      "sampler": 0,
      "source": 0
    },
    {
      "sampler": 0,
      "source": 1
    },
    {
      "sampler": 0,
      "source": 2
    }
  ]
}
