{
  "accessors": [
    {
      "bufferView": 2,
      "componentType": 5126,
      "count": 65532,
      "max": [
        0.4906211197376251,
        0.7979962229728699,
        0.6450278759002686
      ],
      "min": [
        -0.4305739402770996,
        -0.4498421549797058,
        0.006557183340191841
      ],
      "type": "VEC3"
    },
    {
      "bufferView": 2,
      "byteOffset": 786384,
      "componentType": 5126,
      "count": 65532,
      "max": [
        0.9999116659164429,
        0.9999912977218628,
        0.9999774694442749
      ],
      "min": [
        -0.9999441504478455,
        -0.999877393245697,
        -0.9999985694885254
      ],
      "type": "VEC3"
    },
    {
      "bufferView": 3,
      "componentType": 5126,
      "count": 65532,
      "max": [
        0.9999730587005615,
        0.9994181394577026,
        0.9999989867210388,
        1.0
      ],
      "min": [
        -0.9999520182609558,
        -0.9999675154685974,
        -0.9999908804893494,
        -1.0
      ],
      "type": "VEC4"
    },
    {
      "bufferView": 1,
      "componentType": 5126,
      "count": 65532,
      "max": [
        0.9989699721336365,
        0.9955599904060364
      ],
      "min": [
        0.003100000089034438,
        0.002739999908953905
      ],
      "type": "VEC2"
    },
    {
      "bufferView": 0,
      "componentType": 5125,
      "count": 345768,
      "type": "SCALAR"
    },
    {
      "bufferView": 2,
      "byteOffset": 1572768,
      "componentType": 5126,
      "count": 65532,
      "max": [
        0.5107356309890747,
        0.7918307781219482,
        0.6443634033203125
      ],
      "min": [
        -0.4399855434894562,
        -0.4920188784599304,
        0.0007801194442436099
      ],
      "type": "VEC3"
    },
    {
      "bufferView": 2,
      "byteOffset": 2359152,
      "componentType": 5126,
      "count": 65532,
      "max": [
        0.9998358488082886,
        0.9998926520347595,
        0.9999992847442627
      ],
      "min": [
        -0.9999957084655762,
        -0.9998363256454468,
        -0.9999980926513672
      ],
      "type": "VEC3"
    },
    {
      "bufferView": 3,
      "byteOffset": 1048512,
      "componentType": 5126,
      "count": 65532,
      "max": [
        0.9999486804008484,
        0.9994763731956482,
        0.9999805092811584,
        1.0
      ],
      "min": [
        -0.9999970197677612,
        -0.9999966621398926,
        -0.9999611377716064,
        1.0
      ],
      "type": "VEC4"
    },
    {
      "bufferView": 1,
      "byteOffset": 524256,
      "componentType": 5126,
      "count": 65532,
      "max": [
        0.9989100098609924,
        0.9990900158882141
      ],
      "min": [
        0.0010300000431016088,
        0.000910000002477318
      ],
      "type": "VEC2"
    },
    {
      "bufferView": 0,
      "byteOffset": 1383072,
      "componentType": 5125,
      "count": 351381,
      "type": "SCALAR"
    },
    {
      "bufferView": 2,
      "byteOffset": 3145536,
      "componentType": 5126,
      "count": 50791,
      "max": [
        0.5139008164405823,
        0.7565127015113831,
        0.6445630192756653
      ],
      "min": [
        -0.4350341260433197,
        -0.49609416723251343,
        0.002328605158254504
      ],
      "type": "VEC3"
    },
    {
      "bufferView": 2,
      "byteOffset": 3755028,
      "componentType": 5126,
      "count": 50791,
      "max": [
        0.9999034404754639,
        0.9990786910057068,
        0.9999793767929077
      ],
      "min": [
        -0.9904143214225769,
        -0.9998031258583069,
        -0.9999997615814209
      ],
      "type": "VEC3"
    },
    {
      "bufferView": 3,
      "byteOffset": 2097024,
      "componentType": 5126,
      "count": 50791,
      "max": [
        0.9997217655181885,
        0.9999826550483704,
        0.9999940991401672,
        1.0
      ],
      "min": [
        -0.9999985694885254,
        -0.9993290901184082,
        -0.9999930262565613,
        1.0
      ],
      "type": "VEC4"
    },
    {
      "bufferView": 1,
      "byteOffset": 1048512,
      "componentType": 5126,
      "count": 50791,
      "max": [
        0.9985600113868713,
        0.9906399846076965
      ],
      "min": [
        0.003100000089034438,
        0.002739999908953905
      ],
      "type": "VEC2"
    },
    {
      "bufferView": 0,
      "byteOffset": 2788596,
      "componentType": 5125,
      "count": 276750,
      "type": "SCALAR"
    }
  ],
  "asset": {
    "extras": {
      "author": "B/W Productshots (https://sketchfab.com/bw-productshots)",
      "license": "CC-BY-4.0 (http://creativecommons.org/licenses/by/4.0/)",
      "source": "https://sketchfab.com/3d-models/on-running-cloud-sports-shoe-3b6483658c5b4eb2a945a40bff243eda",
      "title": "On Running, Cloud (Sports Shoe)"
    },
    "generator": "Sketchfab-12.66.0",
    "version": "2.0"
  },
  "bufferViews": [
    {
      "buffer": 0,
      "byteLength": 3895596,
      "name": "floatBufferViews",
      "target": 34963
    },
    {
      "buffer": 0,
      "byteLength": 1454840,
      "byteOffset": 3895596,
      "byteStride": 8,
      "name": "floatBufferViews",
      "target": 34962
    },
    {
      "buffer": 0,
      "byteLength": 4364520,
      "byteOffset": 5350436,
      "byteStride": 12,
      "name": "floatBufferViews",
      "target": 34962
    },
    {
      "buffer": 0,
      "byteLength": 2909680,
      "byteOffset": 9714956,
      "byteStride": 16,
      "name": "floatBufferViews",
      "target": 34962
    }
  ],
  "buffers": [
    {
      "byteLength": 12624636,
      "uri": "scene.bin"
    }
  ],
  "images": [
    {
      "uri": "textures/material_0_baseColor.jpeg"
    },
    {
      "uri": "textures/material_0_metallicRoughness.png"
    },
    {
      "uri": "textures/material_0_normal.png"
    }
  ],
  "materials": [
    {
      "doubleSided": true,
      "name": "material_0",
      "normalTexture": {
        "index": 2
      },
      "pbrMetallicRoughness": {
        "baseColorTexture": {
          "index": 0
        },
        "metallicRoughnessTexture": {
          "index": 1
        }
      }
    }
  ],
  "meshes": [
    {
      "name": "Object_0",
      "primitives": [
        {
          "attributes": {
            "NORMAL": 1,
            "POSITION": 0,
            "TANGENT": 2,
            "TEXCOORD_0": 3
          },
          "indices": 4,
          "material": 0,
          "mode": 4
        }
      ]
    },
    {
      "name": "Object_1",
      "primitives": [
        {
          "attributes": {
            "NORMAL": 6,
            "POSITION": 5,
            "TANGENT": 7,
            "TEXCOORD_0": 8
          },
          "indices": 9,
          "material": 0,
          "mode": 4
        }
      ]
    },
    {
      "name": "Object_2",
      "primitives": [
        {
          "attributes": {
            "NORMAL": 11,
            "POSITION": 10,
            "TANGENT": 12,
            "TEXCOORD_0": 13
          },
          "indices": 14,
          "material": 0,
          "mode": 4
        }
      ]
    }
  ],
  "nodes": [
    {
      "children": [
        1
      ],
      "matrix": [
        0.20556855201721191,
        0.0,
        0.0,
        0.0,
        0.0,
        4.564538791767257e-17,
        -0.20556855201721191,
        0.0,
        0.0,
        0.20556855201721191,
        4.564538791767257e-17,
        0.0,
        0.0,
        0.0,
        0.0,
        1.0
      ],
      "name": "Sketchfab_model"
    },
    {
      "children": [
        2,
        3,
        4
      ],
      "name": "rapid.obj.cleaner.materialmerger.gles"
    },
    {
      "mesh": 0,
      "name": "Object_2"
    },
    {
      "mesh": 1,
      "name": "Object_3"
    },
    {
      "mesh": 2,
      "name": "Object_4"
    }
  ],
  "samplers": [
    {
      "magFilter": 9729,
      "minFilter": 9987,
      "wrapS": 10497,
      "wrapT": 10497
    }
  ],
  "scene": 0,
  "scenes": [
    {
      "name": "Sketchfab_Scene",
      "nodes": [
        0
      ]
    }
  ],
  "textures": [
    {
      "sampler": 0,
      "source": 0
    },
    {
      "sampler": 0,
      "source": 1
    },
    {
      "sampler": 0,
      "source": 2
    }
  ]
}
