{
  "accessors": [
    {
      "bufferView": 2,
      "componentType": 5126,
      "count": 10189,
      "max": [
        3.9076449871063232,
        -6.398619174957275,
        1.837043046951294
      ],
      "min": [
        -3.866128921508789,
        -10.231915473937988,
        -1.3923430442810059
      ],
      "type": "VEC3"
    },
    {
      "bufferView": 2,
      "byteOffset": 122268,
      "componentType": 5126,
      "count": 10189,
      "max": [
        0.9992537498474121,
        0.9999414682388306,
        0.9998683333396912
      ],
      "min": [
        -0.9998835325241089,
        -0.9999783635139465,
        -0.9999279975891113
      ],
      "type": "VEC3"
    },
    {
      "bufferView": 1,
      "componentType": 5126,
      "count": 10189,
      "max": [
        0.9733800292015076,
        0.9980400204658508
      ],
      "min": [
        0.0019499999471008778,
        0.0019499999471008778
      ],
      "type": "VEC2"
    },
    {
      "bufferView": 0,
      "componentType": 5125,
      "count": 59844,
      "type": "SCALAR"
    }
  ],
  "asset": {
    "extras": {
      "author": "Przemek Gesicki - DigitWorlds (https://sketchfab.com/DigitWorlds)",
      "license": "CC-BY-NC-4.0 (http://creativecommons.org/licenses/by-nc/4.0/)",
      "source": "https://sketchfab.com/3d-models/adidas-ultra-boost-by-digitworldscom-970837ea5a924a0e85f820ebc092e499",
      "title": "Adidas Ultra Boost by DigitWorlds.com"
    },
    "generator": "Sketchfab-12.66.0",
    "version": "2.0"
  },
  "bufferViews": [
    {
      "buffer": 0,
      "byteLength": 239376,
      "name": "floatBufferViews",
      "target": 34963
    },
    {
      "buffer": 0,
      "byteLength": 81512,
      "byteOffset": 239376,
      "byteStride": 8,
      "name": "floatBufferViews",
      "target": 34962
    },
    {
      "buffer": 0,
      "byteLength": 244536,
      "byteOffset": 320888,
      "byteStride": 12,
      "name": "floatBufferViews",
      "target": 34962
    }
  ],
  "buffers": [
    {
      "byteLength": 565424,
      "uri": "scene.bin"
    }
  ],
  "extensionsUsed": [
    "KHR_materials_unlit"
  ],
  "images": [
    {
      "uri": "textures/20k_uv_zb_island_export_from_agi_baseColor.jpeg"
    }
  ],
  "materials": [
    {
      "doubleSided": true,
      "extensions": {
        "KHR_materials_unlit": {}
      },
      "name": "20k_uv_zb_island_export_from_agi",
      "pbrMetallicRoughness": {
        "baseColorTexture": {
          "index": 0
        },
        "metallicFactor": 0.0
      }
    }
  ],
  "meshes": [
    {
      "name": "Object_0",
      "primitives": [
        {
          "attributes": {
            "NORMAL": 1,
            "POSITION": 0,
            "TEXCOORD_0": 2
          },
          "indices": 3,
          "material": 0,
          "mode": 4
        }
      ]
    }
  ],
  "nodes": [
    {
      "children": [
        1
      ],
      "matrix": [
        0.9696434736251831,
        0.1512707024812699,
        -0.1921163201332092,
        0.0,
        -0.1136283129453659,
        0.9744447469711304,
        0.19376794993877433,
        0.0,
        0.21651816368103027,
        -0.16605597734451316,
        0.9620526432991028,
        0.0,
        -0.9673525094985962,
        8.443378448486326,
        9.512612342834474,
        1.0
      ],
      "name": "Sketchfab_model"
    },
    {
      "children": [
        2
      ],
      "name": "20k_uv_zb island_export from agi.OBJ.cleaner.materialmerger.gles"
    },
    {
      "mesh": 0,
      "name": "Object_2"
    }
  ],
  "samplers": [
    {
      "magFilter": 9729,
      "minFilter": 9987,
      "wrapS": 10497,
      "wrapT": 10497
    }
  ],
  "scene": 0,
  "scenes": [
    {
      "name": "Sketchfab_Scene",
      "nodes": [
        0
      ]
    }
  ],
  "textures": [
    {
      "sampler": 0,
      "source": 0
    }
  ]
}
